<?xml version="1.0" encoding="UTF-8"?><svg xmlns="http://www.w3.org/2000/svg" xmlns:xlink="http://www.w3.org/1999/xlink" height="405.0" preserveAspectRatio="xMidYMid meet" version="1.0" viewBox="27.0 38.0 600.4 405.0" width="600.4" zoomAndPan="magnify"><g id="change1_1"><path d="m308.36 38v4.3233l14.112 18.369v7.0612l-22.662-11.387h-4.2746v29.913h4.2746l22.662-10.038v17.059c-15.636 1.7638-27.658 12.14-27.658 24.675 0 13.772 14.466 24.954 32.344 24.954s32.395-11.182 32.395-24.954c0-12.132-11.257-22.206-26.163-24.436v-16.107l22.557 9.9974h4.0175v-28.326h-4.0175l-22.557 11.306v-9.718l14.11-18.369v-4.3233h-39.141zm14.112 61.53v14.876c-6.1682-0.82826-11.797-2.8552-16.532-5.7125 3.4623-4.6858 9.4391-8.102 16.532-9.1631zm10.919 0.2775c7.1083 1.4478 12.95 5.2933 15.965 10.354-4.6809 2.3551-10.135 3.8738-15.965 4.4044v-14.758zm-66.849 23.208c-8.1278 0-14.731 5.0848-14.731 11.344 0 6.2613 6.6035 11.308 14.731 11.308 8.1258 0 14.729-5.0463 14.729-11.308 0-6.2592-6.6036-11.344-14.729-11.344zm121.29 0c-8.1277 0-14.729 5.0848-14.729 11.344 0 6.2613 6.6016 11.308 14.729 11.308 8.1277 0 14.729-5.0463 14.729-11.308 0-6.2592-6.6015-11.344-14.729-11.344zm-66.54 2.6568c8.5513 0 16.41 2.2255 22.712 5.9515-4.381 3.2076-10.321 5.1556-16.841 5.1556-8.6964 0-16.325-3.4952-20.652-8.7662 4.528-1.5026 9.5377-2.3409 14.781-2.3409zm-93.581 5.0382c-7.4758 0-13.546 4.6737-13.546 10.433 0 5.7591 6.0697 10.435 13.546 10.435 7.4778 0 13.546-4.6758 13.546-10.435 0-5.7591-6.0677-10.433-13.546-10.433zm198.95 0c-7.4759 0-13.544 4.6737-13.544 10.433 0 5.7591 6.0677 10.435 13.544 10.435 7.4778 0 13.546-4.6758 13.546-10.435 0-5.7591-6.0677-10.433-13.546-10.433zm-234.28 12.934c-6.6635 0-12.05 4.1492-12.05 9.2826s5.3869 9.3231 12.05 9.3231c6.6654 0 12.052-4.1897 12.052-9.3231s-5.3869-9.2826-12.052-9.2826zm269.61 0c-6.6634 0-12.05 4.1492-12.05 9.2826s5.387 9.3231 12.05 9.3231c6.6654 0 12.052-4.1897 12.052-9.3231s-5.3868-9.2826-12.052-9.2826zm-176.34 3.649l-5.4585 0.6338c-46.209 5.3602-89.559 19.365-124.02 34.117-34.458 14.754-59.733 29.99-70.867 39.234l10.507 7.4986c8.9594-7.4418 34.012-22.812 67.364-37.092 31.948-13.679 71.811-26.517 113.67-32.054 6.1277 10.573 11.938 20.331 17.973 44.232h14.062c-6.9748-27.617-14.31-40.818-21.066-52.682l-2.1625-3.888zm83.074 0l-2.1644 3.888c-6.7564 11.864-14.089 25.066-21.064 52.682h14.06c6.0348-23.901 11.847-33.66 17.975-44.232 41.855 5.5363 81.716 18.375 113.66 32.054 33.352 14.28 58.404 29.65 67.366 37.092l10.507-7.4986c-11.135-9.2441-36.41-24.48-70.867-39.234-34.458-14.752-77.809-28.757-124.02-34.117l-5.4585-0.6338zm-41.563 0.7533c-6.8259 0-12.36 4.2626-12.36 9.5216 0 5.2589 5.5339 9.5215 12.36 9.5215 6.826 0 12.36-4.2626 12.36-9.5215s-5.5338-9.5216-12.36-9.5216zm-165.99 7.6181c-6.178 0-11.176 3.8495-11.176 8.6083 0 4.7567 4.9981 8.6083 11.176 8.6083 6.176 0 11.226-3.8516 11.226-8.6083 0-4.7588-5.0503-8.6083-11.226-8.6083zm332.03 0c-6.176 0-11.228 3.8495-11.228 8.6083 0 4.7567 5.0522 8.6083 11.228 8.6083 6.1761 0 11.176-3.8516 11.176-8.6083 0-4.7588-5-8.6083-11.176-8.6083zm-363.81 15.392c-5.8511 0-10.557 3.6652-10.557 8.1709 0 4.5076 4.706 8.1729 10.557 8.1729 5.8511 0 10.609-3.6652 10.609-8.1729 0-4.5056-4.7582-8.1709-10.609-8.1709zm395.59 0c-5.8511 0-10.609 3.6652-10.609 8.1709 0 4.5076 4.7582 8.1729 10.609 8.1729 5.853 0 10.559-3.6652 10.559-8.1729 0-4.5056-4.706-8.1709-10.559-8.1709zm-197.82 1.2697c-5.8511 0-10.557 3.6652-10.557 8.1709 0 4.5076 4.706 8.1324 10.557 8.1324 5.8511 0 10.609-3.6247 10.609-8.1324 0-4.5057-4.7583-8.1709-10.609-8.1709zm-225.99 15.074c-5.2012 0-9.4256 3.2542-9.4256 7.2596 0 4.0075 4.2244 7.2596 9.4256 7.2596s9.4236-3.2522 9.4236-7.2596c0-4.0054-4.2224-7.2596-9.4236-7.2596zm452.03 0c-5.201 0-9.4254 3.2542-9.4254 7.2596 0 4.0075 4.2244 7.2596 9.4254 7.2596 5.2012 0 9.4237-3.2522 9.4237-7.2596 0-4.0054-4.2225-7.2596-9.4237-7.2596zm-379.06 1.8245c-13.617 16.275-13.052 37.224-4.7389 60.736-63.24-20.73-85.01 41.745-37.081 60.736-3.6634-15.163-0.15282-31.339 21.219-33.084 11.431-0.93353 24.857 1.5572 26.472 17.692 1.1354 11.352-11.354 38.455-50.627 38.084-24.54-0.23291-50.745-7.3143-62.37-37.608-4.3327-11.291-4.2573-10.741 10.147-6.148 5.6364 1.7962 12.78 5.5262 24.567 13.369-0.83559-12.685-8.7989-44.876-17.048-54.39-11.014 5.9981-12.19 13.067-32.962 17.654 7.3811-11.004 14.228-22.232 24.722-34.435-21.863 1.2575-35.016 5.2954-49.441 7.697 3.383 10.807 6.8182 21.477 11.741 29.911-10.824 16.166-1.766 23.431 9.4256 31.3 4.5571 3.2055 25.136 49.837 14.729 65.736-5.4855 8.3814-2.2785 17.344 5.3056 21.303 8.4836 4.4287 16.104 10.119 23.021 15.987 8.8569 7.5148 6.7969 8.2904 17.665 3.6897 38.257-16.198 121.67-27.334 218.32-27.334 96.645 0 180.06 11.135 218.32 27.334 10.868 4.6007 8.8085 3.8252 17.666-3.6897 6.9168-5.8685 14.54-11.559 23.021-15.987 7.5842-3.9588 10.791-12.921 5.3057-21.303-10.404-15.898 10.172-62.53 14.729-65.736 11.192-7.8692 20.25-15.135 9.4256-31.3 4.9226-8.4341 8.3597-19.104 11.743-29.911-14.427-2.4016-27.58-6.4395-49.443-7.697 10.495 12.203 17.34 23.431 24.722 34.435-20.772-4.5866-21.948-11.656-32.962-17.654-8.2476 9.5135-16.213 41.705-17.046 54.39 11.785-7.8429 18.928-11.573 24.565-13.369 14.406-4.5927 14.48-5.1434 10.147 6.148-11.623 30.294-37.828 37.373-62.37 37.608-39.273 0.37054-51.762-26.732-50.627-38.084 1.615-16.135 15.042-18.626 26.472-17.692 21.373 1.7455 24.882 17.921 21.219 33.084 47.929-18.99 26.159-81.466-37.081-60.736 8.3153-23.512 8.8781-44.461-4.737-60.736-16.462 12.743-35.752 23.535-29.408 58-11.907-6.5793-22.273-13.203-32.961-11.308-14.412 2.5555-27.526 7.0632-30.025 24.478-1.7448 12.158 7.3327 23.753 19.416 31.26 1.6112-11.931 4.4759-22.334 21.785-22.652 19.876-0.36655 23.567 12.278 22.969 22.214-0.82599 13.762-24.992 29.907-55.931 28.127-31.012-1.7841-57.888-22.143-57.426-46.812 9.8182 1.8144 22.17 9.6754 27.863 13.45 1.0967 0.72494 4.9265 0.67227 6.0271 0.71274v-51.573c-1.441 0.026321-4.3966-0.2916-6.1297 0.51639-8.8956 4.1472-19.466 17.31-25.648 16.145 4.8028-15.119 17.921-33.299 18.232-39.471h-63.658c0.30945 6.1722 13.429 24.353 18.232 39.471-6.1819 1.1644-16.752-11.998-25.648-16.145-1.7331-0.80798-4.6886-0.49007-6.1278-0.51639v51.573c1.0986-0.040466 4.9286 0.010132 6.0252-0.71274 5.6944-3.7747 18.046-11.636 27.863-13.45 0.46228 24.668-26.414 45.028-57.426 46.812-30.936 1.78-55.105-14.365-55.931-28.127-0.59767-9.9366 3.0928-22.581 22.969-22.214 17.31 0.31796 20.176 10.72 21.785 22.652 12.083-7.5066 21.163-19.102 19.418-31.26-2.499-17.415-15.615-21.923-30.027-24.478-10.689-1.8954-21.054 4.7284-32.962 11.308 6.3443-34.466-12.946-45.257-29.406-58zm153.01 4.6413c-4.2263 0-7.6229 2.6163-7.6229 5.8725 0 3.2542 3.3966 5.911 7.6229 5.911s7.6732-2.6568 7.6732-5.911c0-3.2562-3.4468-5.8725-7.6732-5.8725zm-248.96 10.751c-4.2263 0-7.6732 2.6568-7.6732 5.911 0 3.2562 3.4469 5.8724 7.6732 5.8724s7.6751-2.6162 7.6751-5.8724c0-3.2542-3.4488-5.911-7.6751-5.911zm497.97 0c-4.2262 0-7.6731 2.6568-7.6731 5.911 0 3.2562 3.4469 5.8724 7.6731 5.8724 4.2263 0 7.675-2.6162 7.675-5.8724 0-3.2542-3.4487-5.911-7.675-5.911zm-249.01 51.334c3.5764 0 6.4894 2.2457 6.4894 4.9997 0 2.7541-2.913 4.9977-6.4894 4.9977s-6.4371-2.2436-6.4371-4.9977c0-2.754 2.8608-4.9997 6.4371-4.9997zm-282.28 19.519c2.6093-0.040466 5.7602 3.238 7.2612 7.6566 1.6035 4.7141 0.68859 8.9565-2.0077 9.481-2.6963 0.52451-6.1761-2.8633-7.7776-7.5775-1.6015-4.7122-0.68662-8.9566 2.0097-9.4811 0.16828-0.03241 0.34045-0.074982 0.51452-0.079041zm564.67 0c0.17401 0.002045 0.34607 0.046631 0.51428 0.079041 2.6965 0.52448 3.6114 4.7689 2.0098 9.4811-1.6015 4.7141-5.0812 8.102-7.7775 7.5775-2.6964-0.52448-3.6094-4.7669-2.0077-9.481 1.5009-4.4186 4.6518-7.6971 7.2612-7.6566zm-282.39 49.191l15.194 18.685-15.194 18.725-15.194-18.725 15.194-18.685zm-62.987 6.4679c4.2264 0 7.6732 2.6163 7.6732 5.8705s-3.4468 5.9109-7.6732 5.9109c-4.2263 0-7.6228-2.6567-7.6228-5.9109s3.3965-5.8705 7.6228-5.8705zm126.08 0c4.2263 0 7.6228 2.6163 7.6228 5.8705s-3.3965 5.9109-7.6228 5.9109c-4.2245 0-7.6733-2.6567-7.6733-5.9109s3.4488-5.8705 7.6733-5.8705zm-184.22 1.2292c15.654 0.23691 28.435 6.6096 29.923 15.631 1.7002 10.307-12.019 20.155-30.642 21.977-18.625 1.8225-35.074-5.0848-36.774-15.392-1.7002-10.309 12.021-20.116 30.644-21.939 2.3288-0.22675 4.6132-0.31177 6.8492-0.27731zm242.37 0c2.2359-0.034454 4.5222 0.050568 6.8491 0.27731 18.623 1.8226 32.344 11.63 30.644 21.939-1.7002 10.307-18.149 17.215-36.772 15.392-18.625-1.8225-32.344-11.67-30.644-21.977 1.4874-9.0213 14.269-15.394 29.923-15.631zm-318.7 16.662c4.2263 0 7.6731 2.6548 7.6731 5.911 0 3.2542-3.4468 5.8705-7.6731 5.8705s-7.6751-2.6164-7.6751-5.8705c0-3.2562 3.4488-5.911 7.6751-5.911zm395.02 0c4.2263 0 7.6751 2.6548 7.6751 5.911 0 3.2542-3.4488 5.8705-7.6751 5.8705-4.2244 0-7.6731-2.6164-7.6731-5.8705 0-3.2562 3.4487-5.911 7.6731-5.911zm-256.43 6.5852c4.2263 0 7.6732 2.6164 7.6732 5.8705 0 3.2562-3.4469 5.911-7.6732 5.911-4.2264 0-7.6228-2.6548-7.6228-5.911 0-3.2542 3.3965-5.8705 7.6228-5.8705zm117.84 0c4.2264 0 7.6228 2.6164 7.6228 5.8705 0 3.2562-3.3965 5.911-7.6228 5.911s-7.6732-2.6548-7.6732-5.911c0-3.2542 3.4469-5.8705 7.6732-5.8705zm-308.39 6.0305l16.325 10.234-4.7369 15.829-16.379-10.275 4.7911-15.789zm498.95 0l4.7911 15.789-16.377 10.275-4.7389-15.829 16.325-10.234zm-441.37 11.186c4.2263 0 7.6229 2.6569 7.6229 5.911 0 3.2562-3.3966 5.8725-7.6229 5.8725s-7.6731-2.6162-7.6731-5.8725c0-3.2541 3.4468-5.911 7.6731-5.911zm383.79 0c4.2264 0 7.6731 2.6569 7.6731 5.911 0 3.2562-3.4467 5.8725-7.6731 5.8725-4.2263 0-7.6229-2.6162-7.6229-5.8725 0-3.2541 3.3966-5.911 7.6229-5.911zm-191.9 14.203c-119.3 0-216 18.8-216 29.474 0 9.7706 96.699 26.501 216 26.501s216-16.73 216-26.501c0-10.674-96.699-29.474-216-29.474z" fill="inherit"/></g></svg>